# xmcd
#
# Track frame offsets:
#	150
#	12875
#	27687
#	41275
#	62300
#	75437
#	90462
#	104612
#	120812
#	136400
#	149225
#	165975
#	181400
#	194375
#
# Disc length: 2789 seconds
#
# Revision: 0
# Processed by: cddbd v1.5.2PL0 Copyright (c) Steve Scherf et al.
# Submitted via: audiograbber 1.83.01
#
DISCID=af0ae30e
DTITLE=新格文化 - 金韻民歌經典系列7鄉愁歲月
DYEAR=1990
DGENRE=Other
TTITLE0=陳明韶 - 浮雲遊子
TTITLE1=李建復 - 歸
TTITLE2=王夢麟 - 拼宵夜
TTITLE3=王夢麟 - 母親我愛您
TTITLE4=李建復 - 感恩
TTITLE5=包美聖 - 白髮吟
TTITLE6=譚荃中吳明華 - 來唱家鄉的歌
TTITLE7=包美聖 - 那一盆火
TTITLE8=李建復 - 龍的傳人
TTITLE9=施孝榮 - 中華之愛
TTITLE10=黃大城 - 唐山子民
TTITLE11=王夢麟 - 七月涼山
TTITLE12=包美聖 - 雨霖鈴
TTITLE13=陳明韶 - 老人與海
EXTD=
EXTT0=
EXTT1=
EXTT2=
EXTT3=
EXTT4=
EXTT5=
EXTT6=
EXTT7=
EXTT8=
EXTT9=
EXTT10=
EXTT11=
EXTT12=
EXTT13=
PLAYORDER=
